{
  "accessors": [
    {
      "bufferView": 2,
      "componentType": 5126,
      "count": 236,
      "max": [
        520.9575805664063,
        289.9913024902344,
        687.0272216796875
      ],
      "min": [
        -530.6077270507813,
        -286.6617126464844,
        663.0701293945313
      ],
      "type": "VEC3"
    },
    {
      "bufferView": 2,
      "byteOffset": 2832,
      "componentType": 5126,
      "count": 236,
      "max": [
        0.9967226982116699,
        0.9967226982116699,
        0.9950101971626282
      ],
      "min": [
        -0.9967226982116699,
        -0.9967226982116699,
        -0.9967226982116699
      ],
      "type": "VEC3"
    },
    {
      "bufferView": 1,
      "componentType": 5126,
      "count": 236,
      "max": [
        0.8991000056266785,
        0.8956000208854675
      ],
      "min": [
        0.10090000182390213,
        0.09939999878406525
      ],
      "type": "VEC2"
    },
    {
      "bufferView": 0,
      "componentType": 5125,
      "count": 996,
      "type": "SCALAR"
    },
    {
      "bufferView": 2,
      "byteOffset": 5664,
      "componentType": 5126,
      "count": 1134,
      "max": [
        303.07330322265625,
        -107.20069885253906,
        772.5598754882813
      ],
      "min": [
        244.90370178222656,
        -165.36610412597656,
        722.1931762695313
      ],
      "type": "VEC3"
    },
    {
      "bufferView": 2,
      "byteOffset": 19272,
      "componentType": 5126,
      "count": 1134,
      "max": [
        0.9999291896820068,
        0.9999997615814209,
        0.0
      ],
      "min": [
        -0.9999115467071533,
        -0.9997022747993469,
        0.0
      ],
      "type": "VEC3"
    },
    {
      "bufferView": 1,
      "byteOffset": 1888,
      "componentType": 5126,
      "count": 1134,
      "max": [
        1.0,
        0.9896000027656555
      ],
      "min": [
        -0.0,
        0.0005000000237487257
      ],
      "type": "VEC2"
    },
    {
      "bufferView": 0,
      "byteOffset": 3984,
      "componentType": 5125,
      "count": 6000,
      "type": "SCALAR"
    },
    {
      "bufferView": 2,
      "byteOffset": 32880,
      "componentType": 5126,
      "count": 6544,
      "max": [
        133.78660583496094,
        176.41690063476563,
        700.9747924804688
      ],
      "min": [
        -135.37770080566406,
        -56.11050033569336,
        689.0449829101563
      ],
      "type": "VEC3"
    },
    {
      "bufferView": 2,
      "byteOffset": 111408,
      "componentType": 5126,
      "count": 6544,
      "max": [
        0.9995101094245911,
        0.9924431443214417,
        0.9330640435218811
      ],
      "min": [
        -0.9998335242271423,
        -0.9924431443214417,
        -0.9045512080192566
      ],
      "type": "VEC3"
    },
    {
      "bufferView": 1,
      "byteOffset": 10960,
      "componentType": 5126,
      "count": 6544,
      "max": [
        1.000599980354309,
        0.9995999932289124
      ],
      "min": [
        0.0005000000237487257,
        0.0005000000237487257
      ],
      "type": "VEC2"
    },
    {
      "bufferView": 0,
      "byteOffset": 27984,
      "componentType": 5125,
      "count": 33096,
      "type": "SCALAR"
    },
    {
      "bufferView": 2,
      "byteOffset": 189936,
      "componentType": 5126,
      "count": 4152,
      "max": [
        203.7532958984375,
        199.50469970703125,
        700.9747924804688
      ],
      "min": [
        -231.3256072998047,
        -95.86090087890625,
        687.0562744140625
      ],
      "type": "VEC3"
    },
    {
      "bufferView": 2,
      "byteOffset": 239760,
      "componentType": 5126,
      "count": 4152,
      "max": [
        0.9993337392807007,
        0.9995101094245911,
        0.9330734014511108
      ],
      "min": [
        -0.9997392296791077,
        -0.9995101094245911,
        -0.9045456051826477
      ],
      "type": "VEC3"
    },
    {
      "bufferView": 1,
      "byteOffset": 63312,
      "componentType": 5126,
      "count": 4152,
      "max": [
        1.0,
        1.0
      ],
      "min": [
        0.0,
        0.0
      ],
      "type": "VEC2"
    },
    {
      "bufferView": 0,
      "byteOffset": 160368,
      "componentType": 5125,
      "count": 19908,
      "type": "SCALAR"
    },
    {
      "bufferView": 2,
      "byteOffset": 289584,
      "componentType": 5126,
      "count": 24,
      "max": [
        214.39430236816406,
        198.55140686035156,
        688.5457153320313
      ],
      "min": [
        -229.97340393066406,
        -96.79319763183594,
        687.0435791015625
      ],
      "type": "VEC3"
    },
    {
      "bufferView": 2,
      "byteOffset": 289872,
      "componentType": 5126,
      "count": 24,
      "max": [
        0.6101874709129333,
        0.6101874709129333,
        0.5773921012878418
      ],
      "min": [
        -0.6101874709129333,
        -0.6101874709129333,
        -0.5773921012878418
      ],
      "type": "VEC3"
    },
    {
      "bufferView": 1,
      "byteOffset": 96528,
      "componentType": 5126,
      "count": 24,
      "max": [
        0.9994999766349792,
        0.9994999766349792
      ],
      "min": [
        0.0005000000237487257,
        0.0005000000237487257
      ],
      "type": "VEC2"
    },
    {
      "bufferView": 0,
      "byteOffset": 240000,
      "componentType": 5125,
      "count": 108,
      "type": "SCALAR"
    },
    {
      "bufferView": 2,
      "byteOffset": 290160,
      "componentType": 5126,
      "count": 120,
      "max": [
        -530.6729736328125,
        -230.54209899902344,
        653.8104858398438
      ],
      "min": [
        -531.06201171875,
        -273.2789001464844,
        636.7620239257813
      ],
      "type": "VEC3"
    },
    {
      "bufferView": 2,
      "byteOffset": 291600,
      "componentType": 5126,
      "count": 120,
      "max": [
        0.697289764881134,
        0.7220327258110046,
        0.7216347455978394
      ],
      "min": [
        -0.697289764881134,
        -0.7220327258110046,
        -0.7216347455978394
      ],
      "type": "VEC3"
    },
    {
      "bufferView": 1,
      "byteOffset": 96720,
      "componentType": 5126,
      "count": 120,
      "max": [
        1.0,
        2.1494998931884766
      ],
      "min": [
        0.0,
        -1.1495000123977661
      ],
      "type": "VEC2"
    },
    {
      "bufferView": 0,
      "byteOffset": 240432,
      "componentType": 5125,
      "count": 324,
      "type": "SCALAR"
    },
    {
      "bufferView": 2,
      "byteOffset": 293040,
      "componentType": 5126,
      "count": 1664,
      "max": [
        133.78660583496094,
        176.39720153808594,
        701.4547119140625
      ],
      "min": [
        -135.33050537109375,
        -56.11050033569336,
        688.5250244140625
      ],
      "type": "VEC3"
    },
    {
      "bufferView": 2,
      "byteOffset": 313008,
      "componentType": 5126,
      "count": 1664,
      "max": [
        0.7067840695381165,
        0.7067840695381165,
        0.9045350551605225
      ],
      "min": [
        -0.7067840695381165,
        -0.7067840695381165,
        -0.9045350551605225
      ],
      "type": "VEC3"
    },
    {
      "bufferView": 1,
      "byteOffset": 97680,
      "componentType": 5126,
      "count": 1664,
      "max": [
        0.9994999766349792,
        0.9994999766349792
      ],
      "min": [
        0.0005000000237487257,
        0.0005000000237487257
      ],
      "type": "VEC2"
    },
    {
      "bufferView": 0,
      "byteOffset": 241728,
      "componentType": 5125,
      "count": 11136,
      "type": "SCALAR"
    },
    {
      "bufferView": 2,
      "byteOffset": 332976,
      "componentType": 5126,
      "count": 6144,
      "max": [
        525.1198120117188,
        294.0710144042969,
        703.064208984375
      ],
      "min": [
        -534.923095703125,
        -290.423095703125,
        4.078700065612793
      ],
      "type": "VEC3"
    },
    {
      "bufferView": 2,
      "byteOffset": 406704,
      "componentType": 5126,
      "count": 6144,
      "max": [
        0.9999332427978516,
        0.9999542832374573,
        1.0
      ],
      "min": [
        -0.9999332427978516,
        -0.9999734163284302,
        -1.0
      ],
      "type": "VEC3"
    },
    {
      "bufferView": 1,
      "byteOffset": 110992,
      "componentType": 5126,
      "count": 6144,
      "max": [
        1.0,
        1.0
      ],
      "min": [
        -0.019200000911951065,
        0.0
      ],
      "type": "VEC2"
    },
    {
      "bufferView": 0,
      "byteOffset": 286272,
      "componentType": 5125,
      "count": 26400,
      "type": "SCALAR"
    },
    {
      "bufferView": 2,
      "byteOffset": 480432,
      "componentType": 5126,
      "count": 6245,
      "max": [
        521.6339111328125,
        294.0710144042969,
        700.7194213867188
      ],
      "min": [
        -531.4371948242188,
        -290.423095703125,
        4.078800201416016
      ],
      "type": "VEC3"
    },
    {
      "bufferView": 2,
      "byteOffset": 555372,
      "componentType": 5126,
      "count": 6245,
      "max": [
        0.9942359924316406,
        0.9996428489685059,
        1.0
      ],
      "min": [
        -0.9958372712135315,
        -0.9993242621421814,
        -1.0
      ],
      "type": "VEC3"
    },
    {
      "bufferView": 1,
      "byteOffset": 160144,
      "componentType": 5126,
      "count": 6245,
      "max": [
        1.0,
        1.0
      ],
      "min": [
        -0.019200000911951065,
        0.0
      ],
      "type": "VEC2"
    },
    {
      "bufferView": 0,
      "byteOffset": 391872,
      "componentType": 5125,
      "count": 27096,
      "type": "SCALAR"
    },
    {
      "bufferView": 2,
      "byteOffset": 630312,
      "componentType": 5126,
      "count": 1801,
      "max": [
        525.1198120117188,
        294.0710144042969,
        651.43212890625
      ],
      "min": [
        -534.923095703125,
        -290.423095703125,
        4.078700065612793
      ],
      "type": "VEC3"
    },
    {
      "bufferView": 2,
      "byteOffset": 651924,
      "componentType": 5126,
      "count": 1801,
      "max": [
        0.9999332427978516,
        0.9996428489685059,
        0.9994942545890808
      ],
      "min": [
        -0.9999332427978516,
        -0.998517632484436,
        -0.9991100430488586
      ],
      "type": "VEC3"
    },
    {
      "bufferView": 1,
      "byteOffset": 210104,
      "componentType": 5126,
      "count": 1801,
      "max": [
        1.0,
        1.0
      ],
      "min": [
        -2.8162999153137207,
        0.0
      ],
      "type": "VEC2"
    },
    {
      "bufferView": 0,
      "byteOffset": 500256,
      "componentType": 5125,
      "count": 4896,
      "type": "SCALAR"
    },
    {
      "bufferView": 2,
      "byteOffset": 673536,
      "componentType": 5126,
      "count": 1168,
      "max": [
        520.7838745117188,
        290.0740966796875,
        662.1627197265625
      ],
      "min": [
        -530.6975708007813,
        -286.89349365234375,
        14.984100341796875
      ],
      "type": "VEC3"
    },
    {
      "bufferView": 2,
      "byteOffset": 687552,
      "componentType": 5126,
      "count": 1168,
      "max": [
        0.9967226982116699,
        0.9967226982116699,
        0.9950242042541504
      ],
      "min": [
        -0.9967226982116699,
        -0.9967226982116699,
        -0.9967226982116699
      ],
      "type": "VEC3"
    },
    {
      "bufferView": 1,
      "byteOffset": 224512,
      "componentType": 5126,
      "count": 1168,
      "max": [
        1.020900011062622,
        1.0224000215530396
      ],
      "min": [
        -0.030799999833106995,
        -0.02239999920129776
      ],
      "type": "VEC2"
    },
    {
      "bufferView": 0,
      "byteOffset": 519840,
      "componentType": 5125,
      "count": 4236,
      "type": "SCALAR"
    },
    {
      "bufferView": 2,
      "byteOffset": 701568,
      "componentType": 5126,
      "count": 8743,
      "max": [
        303.81719970703125,
        -106.4386978149414,
        851.8707885742188
      ],
      "min": [
        244.16650390625,
        -166.1417999267578,
        687.6154174804688
      ],
      "type": "VEC3"
    },
    {
      "bufferView": 2,
      "byteOffset": 806484,
      "componentType": 5126,
      "count": 8743,
      "max": [
        0.9998467564582825,
        0.999844491481781,
        1.0
      ],
      "min": [
        -0.9998463988304138,
        -0.999844491481781,
        -0.9999958276748657
      ],
      "type": "VEC3"
    },
    {
      "bufferView": 1,
      "byteOffset": 233856,
      "componentType": 5126,
      "count": 8743,
      "max": [
        7.492300033569336,
        1256.26171875
      ],
      "min": [
        -538.9766845703125,
        -58.13520050048828
      ],
      "type": "VEC2"
    },
    {
      "bufferView": 0,
      "byteOffset": 536784,
      "componentType": 5125,
      "count": 51708,
      "type": "SCALAR"
    },
    {
      "bufferView": 2,
      "byteOffset": 911400,
      "componentType": 5126,
      "count": 3347,
      "max": [
        287.914306640625,
        -122.36720275878906,
        880.8618774414063
      ],
      "min": [
        260.0675048828125,
        -150.2135009765625,
        866.956298828125
      ],
      "type": "VEC3"
    },
    {
      "bufferView": 2,
      "byteOffset": 951564,
      "componentType": 5126,
      "count": 3347,
      "max": [
        0.9999704360961914,
        0.9999880790710449,
        0.9987315535545349
      ],
      "min": [
        -0.9999704360961914,
        -0.9999880790710449,
        -0.7681198120117188
      ],
      "type": "VEC3"
    },
    {
      "bufferView": 1,
      "byteOffset": 303800,
      "componentType": 5126,
      "count": 3347,
      "max": [
        1.0175000429153442,
        1.0184999704360962
      ],
      "min": [
        -0.017500000074505806,
        -0.01850000023841858
      ],
      "type": "VEC2"
    },
    {
      "bufferView": 0,
      "byteOffset": 743616,
      "componentType": 5125,
      "count": 17688,
      "type": "SCALAR"
    },
    {
      "bufferView": 2,
      "byteOffset": 991728,
      "componentType": 5126,
      "count": 23022,
      "max": [
        304.0150146484375,
        -106.24089813232422,
        879.998779296875
      ],
      "min": [
        243.96890258789063,
        -166.33970642089844,
        687.4183959960938
      ],
      "type": "VEC3"
    },
    {
      "bufferView": 2,
      "byteOffset": 1267992,
      "componentType": 5126,
      "count": 23022,
      "max": [
        0.999846875667572,
        0.9998440146446228,
        0.9999959468841553
      ],
      "min": [
        -0.9998467564582825,
        -0.9998440146446228,
        -0.9999959468841553
      ],
      "type": "VEC3"
    },
    {
      "bufferView": 1,
      "byteOffset": 330576,
      "componentType": 5126,
      "count": 23022,
      "max": [
        7.492300033569336,
        1513.353515625
      ],
      "min": [
        -538.9766845703125,
        -58.13520050048828
      ],
      "type": "VEC2"
    },
    {
      "bufferView": 0,
      "byteOffset": 814368,
      "componentType": 5125,
      "count": 137088,
      "type": "SCALAR"
    },
    {
      "bufferView": 2,
      "byteOffset": 1544256,
      "componentType": 5126,
      "count": 100,
      "max": [
        285.8974914550781,
        -124.37429809570313,
        879.998779296875
      ],
      "min": [
        262.0863952636719,
        -148.206298828125,
        879.998779296875
      ],
      "type": "VEC3"
    },
    {
      "bufferView": 2,
      "byteOffset": 1545456,
      "componentType": 5126,
      "count": 100,
      "max": [
        0.7200016379356384,
        0.7206182479858398,
        0.7216009497642517
      ],
      "min": [
        -0.7199035286903381,
        -0.7206182479858398,
        0.6931957006454468
      ],
      "type": "VEC3"
    },
    {
      "bufferView": 1,
      "byteOffset": 514752,
      "componentType": 5126,
      "count": 100,
      "max": [
        -158.3636016845703,
        1513.353515625
      ],
      "min": [
        -373.12078857421875,
        1513.353271484375
      ],
      "type": "VEC2"
    },
    {
      "bufferView": 0,
      "byteOffset": 1362720,
      "componentType": 5125,
      "count": 300,
      "type": "SCALAR"
    }
  ],
  "asset": {
    "extras": {
      "author": "JasonL (https://sketchfab.com/mauri.schnyder)",
      "license": "CC-BY-4.0 (http://creativecommons.org/licenses/by/4.0/)",
      "source": "https://sketchfab.com/3d-models/litewall-tapered-student-desk-69cc024a78ee47c7b27355e7183e97dc",
      "title": "Litewall Tapered Student Desk"
    },
    "generator": "Sketchfab-12.67.0",
    "version": "2.0"
  },
  "bufferViews": [
    {
      "buffer": 0,
      "byteLength": 1363920,
      "name": "floatBufferViews",
      "target": 34963
    },
    {
      "buffer": 0,
      "byteLength": 515552,
      "byteOffset": 1363920,
      "byteStride": 8,
      "name": "floatBufferViews",
      "target": 34962
    },
    {
      "buffer": 0,
      "byteLength": 1546656,
      "byteOffset": 1879472,
      "byteStride": 12,
      "name": "floatBufferViews",
      "target": 34962
    }
  ],
  "buffers": [
    {
      "byteLength": 3426128,
      "uri": "scene.bin"
    }
  ],
  "images": [
    {
      "uri": "textures/wire_141007058_baseColor.jpeg"
    },
    {
      "uri": "textures/wire_177148027_baseColor.jpeg"
    }
  ],
  "materials": [
    {
      "doubleSided": true,
      "name": "wire_000000000",
      "pbrMetallicRoughness": {
        "baseColorFactor": [
          0.8014945267390894,
          0.8014945267390894,
          0.8014945267390894,
          1.0
        ],
        "metallicFactor": 0.0,
        "roughnessFactor": 0.6
      }
    },
    {
      "doubleSided": true,
      "name": "wire_027177148",
      "pbrMetallicRoughness": {
        "metallicFactor": 0.0,
        "roughnessFactor": 0.6
      }
    },
    {
      "alphaMode": "BLEND",
      "doubleSided": true,
      "name": "wire_057008136",
      "pbrMetallicRoughness": {
        "baseColorFactor": [
          0.6592412686351545,
          0.2746409553862542,
          0.007804646349111953,
          0.4
        ],
        "metallicFactor": 0.0,
        "roughnessFactor": 0.6
      }
    },
    {
      "doubleSided": true,
      "name": "wire_088177027",
      "pbrMetallicRoughness": {
        "baseColorFactor": [
          0.024031858959787163,
          0.024031858959787163,
          0.024031858959787163,
          1.0
        ],
        "metallicFactor": 0.0
      }
    },
    {
      "doubleSided": true,
      "name": "wire_108008136",
      "pbrMetallicRoughness": {
        "roughnessFactor": 0.030000000000000027
      }
    },
    {
      "alphaMode": "BLEND",
      "doubleSided": true,
      "name": "wire_113135006",
      "pbrMetallicRoughness": {
        "baseColorFactor": [
          1.0,
          1.0,
          1.0,
          0.3980564024390244
        ],
        "metallicFactor": 0.5443978658536586,
        "roughnessFactor": 0.0
      }
    },
    {
      "doubleSided": true,
      "name": "wire_138008110",
      "pbrMetallicRoughness": {
        "baseColorFactor": [
          0.9130986517934192,
          0.9130986517934192,
          0.9130986517934192,
          1.0
        ],
        "metallicFactor": 0.0,
        "roughnessFactor": 0.26
      }
    },
    {
      "doubleSided": true,
      "name": "wire_141007058",
      "pbrMetallicRoughness": {
        "baseColorFactor": [
          0.8,
          0.8,
          0.8,
          1.0
        ],
        "baseColorTexture": {
          "index": 0
        },
        "metallicFactor": 0.0,
        "roughnessFactor": 0.28
      }
    },
    {
      "doubleSided": true,
      "name": "wire_176026026",
      "pbrMetallicRoughness": {
        "baseColorFactor": [
          0.020742511621608114,
          0.020742511621608114,
          0.020742511621608114,
          1.0
        ],
        "metallicFactor": 0.0,
        "roughnessFactor": 0.26
      }
    },
    {
      "doubleSided": true,
      "name": "wire_177148027",
      "pbrMetallicRoughness": {
        "baseColorTexture": {
          "index": 1
        },
        "metallicFactor": 0.0,
        "roughnessFactor": 0.21999999999999997
      }
    },
    {
      "alphaMode": "BLEND",
      "doubleSided": true,
      "name": "wire_214229166",
      "pbrMetallicRoughness": {
        "baseColorFactor": [
          1.0,
          1.0,
          1.0,
          0.45
        ],
        "metallicFactor": 0.5,
        "roughnessFactor": 0.6
      }
    }
  ],
  "meshes": [
    {
      "name": "Object_0",
      "primitives": [
        {
          "attributes": {
            "NORMAL": 1,
            "POSITION": 0,
            "TEXCOORD_0": 2
          },
          "indices": 3,
          "material": 7,
          "mode": 4
        }
      ]
    },
    {
      "name": "Object_1",
      "primitives": [
        {
          "attributes": {
            "NORMAL": 5,
            "POSITION": 4,
            "TEXCOORD_0": 6
          },
          "indices": 7,
          "material": 9,
          "mode": 4
        }
      ]
    },
    {
      "name": "Object_2",
      "primitives": [
        {
          "attributes": {
            "NORMAL": 9,
            "POSITION": 8,
            "TEXCOORD_0": 10
          },
          "indices": 11,
          "material": 0,
          "mode": 4
        }
      ]
    },
    {
      "name": "Object_3",
      "primitives": [
        {
          "attributes": {
            "NORMAL": 13,
            "POSITION": 12,
            "TEXCOORD_0": 14
          },
          "indices": 15,
          "material": 0,
          "mode": 4
        }
      ]
    },
    {
      "name": "Object_4",
      "primitives": [
        {
          "attributes": {
            "NORMAL": 17,
            "POSITION": 16,
            "TEXCOORD_0": 18
          },
          "indices": 19,
          "material": 1,
          "mode": 4
        }
      ]
    },
    {
      "name": "Object_5",
      "primitives": [
        {
          "attributes": {
            "NORMAL": 21,
            "POSITION": 20,
            "TEXCOORD_0": 22
          },
          "indices": 23,
          "material": 2,
          "mode": 4
        }
      ]
    },
    {
      "name": "Object_6",
      "primitives": [
        {
          "attributes": {
            "NORMAL": 25,
            "POSITION": 24,
            "TEXCOORD_0": 26
          },
          "indices": 27,
          "material": 3,
          "mode": 4
        }
      ]
    },
    {
      "name": "Object_7",
      "primitives": [
        {
          "attributes": {
            "NORMAL": 29,
            "POSITION": 28,
            "TEXCOORD_0": 30
          },
          "indices": 31,
          "material": 4,
          "mode": 4
        }
      ]
    },
    {
      "name": "Object_8",
      "primitives": [
        {
          "attributes": {
            "NORMAL": 33,
            "POSITION": 32,
            "TEXCOORD_0": 34
          },
          "indices": 35,
          "material": 4,
          "mode": 4
        }
      ]
    },
    {
      "name": "Object_9",
      "primitives": [
        {
          "attributes": {
            "NORMAL": 37,
            "POSITION": 36,
            "TEXCOORD_0": 38
          },
          "indices": 39,
          "material": 4,
          "mode": 4
        }
      ]
    },
    {
      "name": "Object_10",
      "primitives": [
        {
          "attributes": {
            "NORMAL": 41,
            "POSITION": 40,
            "TEXCOORD_0": 42
          },
          "indices": 43,
          "material": 6,
          "mode": 4
        }
      ]
    },
    {
      "name": "Object_11",
      "primitives": [
        {
          "attributes": {
            "NORMAL": 45,
            "POSITION": 44,
            "TEXCOORD_0": 46
          },
          "indices": 47,
          "material": 5,
          "mode": 4
        }
      ]
    },
    {
      "name": "Object_12",
      "primitives": [
        {
          "attributes": {
            "NORMAL": 49,
            "POSITION": 48,
            "TEXCOORD_0": 50
          },
          "indices": 51,
          "material": 8,
          "mode": 4
        }
      ]
    },
    {
      "name": "Object_13",
      "primitives": [
        {
          "attributes": {
            "NORMAL": 53,
            "POSITION": 52,
            "TEXCOORD_0": 54
          },
          "indices": 55,
          "material": 10,
          "mode": 4
        }
      ]
    },
    {
      "name": "Object_14",
      "primitives": [
        {
          "attributes": {
            "NORMAL": 57,
            "POSITION": 56,
            "TEXCOORD_0": 58
          },
          "indices": 59,
          "material": 10,
          "mode": 4
        }
      ]
    }
  ],
  "nodes": [
    {
      "children": [
        1
      ],
      "matrix": [
        0.0012499999720603228,
        0.0,
        0.0,
        0.0,
        0.0,
        2.7755574995243454e-19,
        -0.0012499999720603228,
        0.0,
        0.0,
        0.0012499999720603228,
        2.7755574995243454e-19,
        0.0,
        0.0,
        0.0,
        0.0,
        1.0
      ],
      "name": "Sketchfab_model"
    },
    {
      "children": [
        2,
        3,
        4,
        5,
        6,
        7,
        8,
        9,
        10,
        11,
        12,
        13,
        14,
        15,
        16
      ],
      "name": "Litewall Tappered.obj.cleaner.materialmerger.gles"
    },
    {
      "mesh": 0,
      "name": "Object_2"
    },
    {
      "mesh": 1,
      "name": "Object_3"
    },
    {
      "mesh": 2,
      "name": "Object_4"
    },
    {
      "mesh": 3,
      "name": "Object_5"
    },
    {
      "mesh": 4,
      "name": "Object_6"
    },
    {
      "mesh": 5,
      "name": "Object_7"
    },
    {
      "mesh": 6,
      "name": "Object_8"
    },
    {
      "mesh": 7,
      "name": "Object_9"
    },
    {
      "mesh": 8,
      "name": "Object_10"
    },
    {
      "mesh": 9,
      "name": "Object_11"
    },
    {
      "mesh": 10,
      "name": "Object_12"
    },
    {
      "mesh": 11,
      "name": "Object_13"
    },
    {
      "mesh": 12,
      "name": "Object_14"
    },
    {
      "mesh": 13,
      "name": "Object_15"
    },
    {
      "mesh": 14,
      "name": "Object_16"
    }
  ],
  "samplers": [
    {
      "magFilter": 9729,
      "minFilter": 9987,
      "wrapS": 10497,
      "wrapT": 10497
    }
  ],
  "scene": 0,
  "scenes": [
    {
      "name": "Sketchfab_Scene",
      "nodes": [
        0
      ]
    }
  ],
  "textures": [
    {
      "sampler": 0,
      "source": 0
    },
    {
      "sampler": 0,
      "source": 1
    }
  ]
}
